<svg width="678" height="252" viewBox="0 0 678 252" fill="none" xmlns="http://www.w3.org/2000/svg">
<path d="M296.562 92.5312C295.021 92.5312 292.646 92.4062 289.438 92.1562C286.312 91.9271 283.938 91.8229 282.312 91.8438H280.094C280.156 94.7188 280.438 99.3854 280.938 105.844C281.396 111.865 281.625 116.542 281.625 119.875C281.625 120.604 281.698 121.708 281.844 123.188C281.99 124.667 282.062 125.781 282.062 126.531C282.062 127.948 281.833 129.167 281.375 130.188C280.792 131.562 279.885 132.25 278.656 132.25C277.823 132.25 277.073 131.958 276.406 131.375C275.74 130.792 275.406 130.042 275.406 129.125C275.406 128.812 275.458 128.344 275.562 127.719C275.667 127.094 275.719 126.625 275.719 126.312C275.719 125.292 275.646 123.76 275.5 121.719C275.375 119.677 275.312 118.135 275.312 117.094C275.312 114.115 275.073 109.927 274.594 104.531C274.094 98.6979 273.812 94.5104 273.75 91.9688L270.906 92C266.344 92 262.76 91.6667 260.156 91C258.469 90.5625 257.625 89.5312 257.625 87.9062C257.625 87.0521 257.896 86.3021 258.438 85.6562C259.062 84.9271 259.865 84.5938 260.844 84.6562C261.573 84.6979 263.24 84.8854 265.844 85.2188C267.927 85.4688 269.615 85.5938 270.906 85.5938C272.156 85.5938 274.052 85.5729 276.594 85.5312C279.135 85.4688 281.031 85.4375 282.281 85.4375C283.885 85.4375 286.26 85.5521 289.406 85.7812C292.573 86.0104 294.958 86.125 296.562 86.125C297.458 86.125 298.208 86.4375 298.812 87.0625C299.417 87.6667 299.719 88.4271 299.719 89.3438C299.719 90.2396 299.417 91 298.812 91.625C298.208 92.2292 297.458 92.5312 296.562 92.5312ZM328.32 133.938C326.841 133.938 325.872 133.146 325.414 131.562C324.935 129.854 324.497 127.427 324.101 124.281C323.726 121.26 323.539 118.781 323.539 116.844C323.539 116.302 323.56 115.479 323.601 114.375C323.664 113.271 323.695 112.448 323.695 111.906C323.695 107.99 322.716 106.031 320.757 106.031C318.112 106.031 315.747 107.229 313.664 109.625C312.601 110.854 311.143 113.198 309.289 116.656C309.289 124.594 308.955 129.292 308.289 130.75C307.705 132.042 306.799 132.688 305.57 132.688C304.716 132.688 303.966 132.396 303.32 131.812C302.674 131.229 302.351 130.521 302.351 129.688C302.351 129.396 302.445 128.938 302.632 128.312C302.799 127.792 302.914 126.271 302.976 123.75L303.07 119.125L303.164 96.1562C303.31 93.5729 303.382 91.8333 303.382 90.9375C303.382 89.875 303.278 88.875 303.07 87.9375C302.882 86.9792 302.789 85.9896 302.789 84.9688C302.789 84.0938 303.091 83.375 303.695 82.8125C304.299 82.2292 305.039 81.9375 305.914 81.9375C307.622 81.9375 308.622 82.8542 308.914 84.6875C309.247 86.7083 309.414 88.5312 309.414 90.1562C309.414 92.3438 309.341 94.625 309.195 97C309.07 99.2708 309.018 101.552 309.039 103.844L309.07 106.594C310.778 104.302 312.601 102.594 314.539 101.469C316.497 100.323 318.57 99.75 320.757 99.75C324.216 99.75 326.591 100.875 327.882 103.125C328.799 104.708 329.32 107.375 329.445 111.125L329.695 117.094L330.32 123.594C330.612 126.031 330.966 128.177 331.382 130.031C331.466 130.385 331.507 130.688 331.507 130.938C331.507 131.792 331.195 132.5 330.57 133.062C329.945 133.646 329.195 133.938 328.32 133.938ZM354.077 133.438C349.369 133.438 345.557 132.26 342.64 129.906C339.452 127.302 337.859 123.656 337.859 118.969C337.859 113.552 339.171 109.01 341.796 105.344C344.65 101.344 348.463 99.3438 353.234 99.3438C356.692 99.3438 359.515 99.9271 361.702 101.094C364.39 102.531 365.734 104.74 365.734 107.719C365.734 109.802 364.557 111.698 362.202 113.406C361.161 114.156 358.952 115.323 355.577 116.906L343.64 122.562C344.807 124.292 346.255 125.594 347.984 126.469C349.734 127.344 351.765 127.781 354.077 127.781C355.515 127.781 357.202 127.51 359.14 126.969C361.598 126.281 363.182 125.385 363.89 124.281C364.598 123.156 365.359 122.594 366.171 122.594C366.9 122.594 367.546 122.875 368.109 123.438C368.692 123.979 368.984 124.615 368.984 125.344C368.984 127.656 367.119 129.646 363.39 131.312C360.202 132.729 357.098 133.438 354.077 133.438ZM353.234 104.969C350.692 104.969 348.577 105.958 346.89 107.938C345.202 109.896 343.942 112.854 343.109 116.812L352.702 112.25C356.473 110.417 359.161 108.823 360.765 107.469C358.973 105.802 356.463 104.969 353.234 104.969ZM318.945 146.969C318.632 147.844 318.476 149.125 318.476 150.812C318.476 151.438 318.497 152.365 318.539 153.594C318.58 154.823 318.601 155.75 318.601 156.375C318.601 158.458 318.414 161.562 318.039 165.688C317.685 169.812 317.507 172.917 317.507 175C317.507 176.583 317.622 178.958 317.851 182.125C318.08 185.292 318.195 187.677 318.195 189.281C318.195 190.135 317.903 190.854 317.32 191.438C316.757 192.021 316.049 192.312 315.195 192.312C314.362 192.312 313.653 192.021 313.07 191.438C312.487 190.854 312.195 190.135 312.195 189.281C312.195 187.677 312.08 185.292 311.851 182.125C311.622 178.958 311.507 176.583 311.507 175C311.507 173.479 311.56 171.938 311.664 170.375C308.101 170.438 303.695 170.969 298.445 171.969L285.32 174.531C285.32 176.406 285.132 179.073 284.757 182.531C284.382 185.969 284.195 188.635 284.195 190.531C284.195 191.385 283.903 192.104 283.32 192.688C282.757 193.292 282.049 193.594 281.195 193.594C280.341 193.594 279.622 193.292 279.039 192.688C278.476 192.104 278.195 191.385 278.195 190.531C278.195 188.323 278.372 185.031 278.726 180.656C279.101 176.26 279.289 172.958 279.289 170.75C279.289 169.604 279.247 167.875 279.164 165.562C279.08 163.25 279.039 161.51 279.039 160.344C279.039 158.698 279.143 156.229 279.351 152.938C279.56 149.625 279.664 147.146 279.664 145.5C279.664 144.625 279.945 143.896 280.507 143.312C281.091 142.729 281.81 142.438 282.664 142.438C283.518 142.438 284.226 142.729 284.789 143.312C285.372 143.896 285.664 144.625 285.664 145.5C285.664 147.167 285.549 149.667 285.32 153C285.112 156.312 285.007 158.802 285.007 160.469L285.195 168.375L298.601 165.844C303.955 164.844 308.466 164.323 312.132 164.281C312.362 161.302 312.476 156.812 312.476 150.812C312.476 149.229 312.737 147.625 313.257 146C313.945 143.771 314.914 142.656 316.164 142.656C316.955 142.656 317.664 142.948 318.289 143.531C318.914 144.094 319.226 144.812 319.226 145.688C319.226 146 319.132 146.427 318.945 146.969ZM358.14 191.344C357.348 191.344 356.609 191.01 355.921 190.344C349.025 183.531 341.359 178.948 332.921 176.594L333.171 182.719L333.327 188.875C333.327 189.792 333.025 190.552 332.421 191.156C331.838 191.781 331.098 192.094 330.202 192.094C329.307 192.094 328.557 191.781 327.952 191.156C327.369 190.552 327.077 189.792 327.077 188.875C327.077 187.229 326.994 184.781 326.827 181.531C326.682 178.26 326.609 175.802 326.609 174.156C326.609 172.24 326.817 169.385 327.234 165.594C327.65 161.802 327.859 158.958 327.859 157.062C327.859 156 327.755 154.427 327.546 152.344C327.359 150.26 327.265 148.688 327.265 147.625C327.265 146.438 327.598 145.396 328.265 144.5C329.057 143.396 330.15 142.896 331.546 143L339.077 143.594C341.932 143.948 344.338 144.646 346.296 145.688C354.734 150.167 358.952 155.635 358.952 162.094C358.952 165.26 357.515 168.062 354.64 170.5C352.327 172.458 349.442 173.948 345.984 174.969C352.463 178.448 357.307 182.115 360.515 185.969C361.057 186.635 361.327 187.344 361.327 188.094C361.327 188.969 361.005 189.729 360.359 190.375C359.734 191.021 358.994 191.344 358.14 191.344ZM338.234 150.031L333.609 149.656L333.921 153.438C334.067 154.979 334.14 156.24 334.14 157.219C334.14 158.885 334.005 160.958 333.734 163.438L333.077 169.656C333.369 169.656 333.817 169.667 334.421 169.688C335.046 169.708 335.515 169.719 335.827 169.719C341.14 169.719 345.119 169.01 347.765 167.594C348.932 166.948 350.015 166.104 351.015 165.062C352.119 163.896 352.671 162.906 352.671 162.094C352.671 159.198 351.025 156.5 347.734 154C344.713 151.708 341.546 150.385 338.234 150.031ZM395.874 172.656C395.29 172.656 394.02 172.521 392.061 172.25C391.895 175.396 391.811 180.906 391.811 188.781C391.811 189.615 391.54 190.323 390.999 190.906C390.457 191.469 389.78 191.75 388.967 191.75C388.134 191.75 387.447 191.469 386.905 190.906C386.363 190.323 386.092 189.615 386.092 188.781V179.594C386.092 176.531 386.28 172.219 386.655 166.656C387.072 160.635 387.301 156.323 387.342 153.719V149.406C387.342 147.344 387.467 145.844 387.717 144.906C388.197 143.073 389.217 142.281 390.78 142.531C391.447 142.323 392.395 142.167 393.624 142.062C394.853 141.958 396.363 141.906 398.155 141.906C401.967 141.906 405.54 143.208 408.874 145.812C412.54 148.688 414.374 152.146 414.374 156.188C414.374 161.354 412.415 165.469 408.499 168.531C404.999 171.281 400.79 172.656 395.874 172.656ZM397.436 147.844C396.52 147.844 395.697 147.865 394.967 147.906C394.259 147.948 393.655 148.01 393.155 148.094L393.092 153.844L392.436 166.281L395.874 166.688C399.374 166.688 402.322 165.802 404.717 164.031C407.342 162.094 408.655 159.479 408.655 156.188C408.655 153.854 407.405 151.844 404.905 150.156C402.592 148.615 400.103 147.844 397.436 147.844ZM428.881 166.438L428.413 181.969C428.413 183.615 428.329 186.031 428.163 189.219C427.954 191.302 426.933 192.344 425.1 192.344C423.058 192.344 422.038 191.281 422.038 189.156C422.038 186.635 422.152 182.854 422.381 177.812C422.61 172.75 422.725 168.958 422.725 166.438C422.725 163.146 422.777 159.385 422.881 155.156C422.985 150.906 423.038 147.135 423.038 143.844C423.038 141.76 424.058 140.719 426.1 140.719C428.163 140.719 429.194 141.76 429.194 143.844C429.194 147.135 429.142 150.906 429.038 155.156C428.933 159.385 428.881 163.146 428.881 166.438ZM463.232 193.062C462.837 193.062 462.118 192.604 461.076 191.688C460.139 190.833 459.441 190.073 458.982 189.406C456.982 190.49 455.222 191.302 453.701 191.844C452.18 192.406 450.91 192.688 449.889 192.688C445.014 192.688 441.462 191.312 439.232 188.562C437.128 185.979 436.076 182.021 436.076 176.688C436.076 171.646 437.805 167.333 441.264 163.75C444.743 160.167 448.889 158.375 453.701 158.375C455.514 158.375 457.545 158.844 459.795 159.781C462.628 160.948 464.045 162.354 464.045 164C464.045 164.562 463.837 165.062 463.42 165.5C463.212 166.292 463.045 167.594 462.92 169.406C462.816 171.219 462.753 173.542 462.732 176.375C462.712 178.958 462.889 181 463.264 182.5C463.472 183.417 464.128 185.25 465.232 188C465.378 188.375 465.618 188.927 465.951 189.656L466.139 190.188C466.139 191.021 465.847 191.708 465.264 192.25C464.68 192.792 464.003 193.062 463.232 193.062ZM456.732 171.344C456.732 170.448 456.785 169.479 456.889 168.438C457.014 167.375 457.191 166.25 457.42 165.062C456.649 164.667 455.982 164.375 455.42 164.188C454.878 164 454.441 163.906 454.107 163.906C450.878 163.906 448.087 165.229 445.732 167.875C443.399 170.5 442.232 173.531 442.232 176.969C442.232 180.385 442.837 182.948 444.045 184.656C445.253 186.365 447.066 187.219 449.482 187.219C451.482 187.219 453.18 186.854 454.576 186.125C455.326 185.729 456.378 184.938 457.732 183.75C457.066 178.229 456.732 174.094 456.732 171.344ZM492.803 164.375C492.365 164.375 491.844 164.354 491.24 164.312C490.657 164.271 490.146 164.25 489.709 164.25C489.23 164.25 487.813 164.406 485.459 164.719L486.053 183.188L486.084 184.562L486.115 186.156C486.198 190.719 485.105 193 482.834 193C482 193 481.271 192.729 480.646 192.188C480.042 191.646 479.74 190.969 479.74 190.156C479.74 189.365 479.771 188.177 479.834 186.594C479.896 185.01 479.928 183.823 479.928 183.031L479.303 164.781C477.782 164.719 475.469 164.542 472.365 164.25C470.511 164 469.584 162.969 469.584 161.156C469.584 160.24 469.865 159.479 470.428 158.875C470.99 158.271 471.709 157.969 472.584 157.969L479.146 158.5C479.146 157.438 479.094 156.021 478.99 154.25C478.907 152.458 478.865 151.167 478.865 150.375C478.865 149.5 479.167 148.781 479.771 148.219C480.375 147.635 481.115 147.344 481.99 147.344C483.865 147.344 484.959 148.875 485.271 151.938C485.334 152.708 485.365 153.635 485.365 154.719L485.303 156.531L485.271 158.469C487.855 158.135 489.334 157.969 489.709 157.969C491.875 157.969 493.292 158.073 493.959 158.281C495.23 158.698 495.865 159.677 495.865 161.219C495.865 162.135 495.573 162.896 494.99 163.5C494.428 164.083 493.698 164.375 492.803 164.375ZM523.404 147.062C518.362 147.062 515.539 150.562 514.935 157.562L514.841 159.5C518.383 159.25 520.675 159.125 521.716 159.125C525.029 159.125 526.685 160.167 526.685 162.25C526.685 163.771 525.872 164.677 524.247 164.969C523.539 165.094 522.706 165.146 521.747 165.125C520.81 165.083 518.414 165.219 514.56 165.531L514.31 172.656C514.31 173.948 514.352 175.885 514.435 178.469C514.518 181.052 514.56 182.979 514.56 184.25C514.56 188.208 514.331 191.292 513.872 193.5C513.518 195.167 512.55 196 510.966 196C510.112 196 509.383 195.719 508.779 195.156C508.175 194.615 507.872 193.927 507.872 193.094C507.872 192.927 507.893 192.719 507.935 192.469C508.372 189.76 508.591 186.812 508.591 183.625L508.497 175.094V166.031C505.893 166.24 504.247 166.344 503.56 166.344C501.456 166.344 500.404 165.333 500.404 163.312C500.404 161.25 502.227 160.167 505.872 160.062L508.872 159.969C508.935 158.802 509.091 157.219 509.341 155.219C509.883 150.594 511.05 147.188 512.841 145C515.008 142.354 518.393 141.031 522.997 141.031C525.977 141.031 527.466 142.042 527.466 144.062C527.466 146.062 526.112 147.062 523.404 147.062ZM547.005 192.844C543.505 192.844 540.495 191.552 537.974 188.969C535.161 186.094 533.682 182.229 533.536 177.375C533.411 172.667 534.599 168.521 537.099 164.938C540.015 160.708 544.078 158.594 549.286 158.594C553.453 158.594 556.609 160.5 558.755 164.312C560.463 167.396 561.286 171.104 561.224 175.438C561.161 180.062 559.953 184.01 557.599 187.281C554.932 190.99 551.401 192.844 547.005 192.844ZM548.88 164.938C545.818 164.917 543.432 166.375 541.724 169.312C540.37 171.667 539.693 174.354 539.693 177.375C539.693 180.396 540.515 182.75 542.161 184.438C543.536 185.833 545.151 186.531 547.005 186.531C549.172 186.531 551.036 185.74 552.599 184.156C554.37 182.406 555.307 180.042 555.411 177.062C555.703 169 553.526 164.958 548.88 164.938ZM593.606 167.906C593.46 170.51 592.419 171.812 590.481 171.812C588.69 171.812 587.794 170.781 587.794 168.719C587.794 168.323 587.763 167.594 587.7 166.531L587.606 163.906C584.315 164.302 581.679 165.229 579.7 166.688C577.846 168.042 576.304 170.083 575.075 172.812L575.138 189.938C575.138 192.042 574.106 193.094 572.044 193.094C570.21 193.094 569.294 192.042 569.294 189.938V168C569.294 167.312 569.315 166.281 569.356 164.906C569.419 163.531 569.45 162.5 569.45 161.812C569.45 159.708 570.367 158.656 572.2 158.656C574.242 158.656 575.273 160.385 575.294 163.844C579.294 159.99 583.731 158.062 588.606 158.062C590.294 158.062 591.554 158.698 592.388 159.969C593.221 161.24 593.638 163.156 593.638 165.719C593.638 166.802 593.627 167.531 593.606 167.906ZM640.051 193.594C638.343 193.594 637.343 192.688 637.051 190.875C636.676 188.583 636.301 185.354 635.926 181.188L634.864 171.5C634.655 170.062 634.301 168.656 633.801 167.281C633.093 165.406 632.322 164.469 631.489 164.469C630.718 164.469 629.28 165.125 627.176 166.438C625.176 167.646 623.864 168.615 623.239 169.344C623.218 171.302 623.27 173.26 623.395 175.219L624.332 183.562C624.728 186.854 624.926 189.573 624.926 191.719C624.926 192.635 624.635 193.385 624.051 193.969C623.489 194.573 622.76 194.875 621.864 194.875C620.968 194.875 620.228 194.573 619.645 193.969C619.082 193.385 618.801 192.635 618.801 191.719C618.801 189.198 618.541 185.479 618.02 180.562C617.52 175.625 617.27 171.896 617.27 169.375C617.27 167.167 616.957 165.448 616.332 164.219C614.874 164.885 613.395 165.969 611.895 167.469L608.207 171.594C607.874 172.094 607.343 172.75 606.614 173.562C606.614 174.812 606.499 176.656 606.27 179.094C606.041 181.531 605.926 183.333 605.926 184.5C605.926 185.125 606.02 186 606.207 187.125C606.416 188.25 606.52 189.062 606.52 189.562C606.52 190.417 606.197 191.135 605.551 191.719C604.926 192.302 604.187 192.594 603.332 192.594C600.978 192.594 599.801 189.917 599.801 184.562C599.801 183.312 599.916 181.448 600.145 178.969C600.374 176.49 600.489 174.625 600.489 173.375C600.489 172.271 600.385 170.615 600.176 168.406C599.989 166.198 599.895 164.531 599.895 163.406C599.895 158.677 600.957 156.312 603.082 156.312C603.895 156.312 604.635 156.667 605.301 157.375C605.989 158.083 606.332 158.854 606.332 159.688C606.332 160.083 606.28 160.698 606.176 161.531C606.072 162.365 606.02 163 606.02 163.438L606.082 166.719C607.166 164.49 608.76 162.479 610.864 160.688C612.968 158.875 614.76 157.969 616.239 157.969C619.51 157.969 621.76 159.594 622.989 162.844C624.135 161.323 625.499 160.188 627.082 159.438C628.666 158.667 630.478 158.281 632.52 158.281C635.999 158.281 638.374 160.156 639.645 163.906C639.895 164.656 640.322 167.583 640.926 172.688C641.51 176.271 642.26 182.24 643.176 190.594C643.239 191.427 642.957 192.135 642.332 192.719C641.707 193.302 640.947 193.594 640.051 193.594Z" fill="black"/>
<path d="M108.072 50.849L108.433 56.5891H108.793H108.965L109.515 55.8715L110.236 54.0778L111.318 51.5665L112.04 50.1314L112.401 47.9789V47.2614V45.1089V42.5976L112.04 39.7275L111.318 37.575L110.597 36.14L109.876 34.7049L109.154 33.6287L107.711 32.5524L106.269 31.4761L104.826 30.7586L103.383 30.3999L101.94 30.0411H101.219H99.7758L97.6115 30.3999L94.3651 31.4761L89.6759 33.2699L86.0688 35.0637L83.5438 36.14H84.9867H91.1187L94.7258 36.8575L97.2508 37.575L100.136 39.3688L102.661 41.5213L105.186 44.0326L106.99 47.2614L108.072 50.849Z" fill="#7E8E27"/>
<g style="mix-blend-mode:darken">
<path d="M1 176.753L1.67109 177.801L3.34881 178.151L4.35544 177.801L5.36207 177.452L7.03979 176.055L8.38196 174.308L10.7308 172.212L11.0663 171.514L11.4019 170.815L11.7374 170.466L12.4085 170.815L13.0796 171.164L16.0995 172.212L17.1061 172.562L19.1194 172.911H23.1459L26.1658 172.212L28.179 171.514L33.2122 169.068L35.2255 167.671L38.2454 164.877L40.2586 162.781L42.2719 160.685L44.9562 156.493L48.3117 150.904L49.9894 147.76L50.6605 147.062L51.3316 147.76L52.0027 154.397L52.6737 158.938L54.687 175.356L55.3581 179.548L56.0292 183.74L57.0358 188.979L57.3714 192.123V194.219L57.0358 195.966L57.7069 198.062L59.0491 199.459L60.7268 200.507L62.4045 201.205L64.4178 202.253L67.7732 202.952L70.7931 203.651H72.8064L73.4775 202.952L73.813 202.253L73.1419 201.205L71.4642 199.459L69.7865 198.062L67.4377 195.616L66.0955 194.219L65.7599 193.521V191.774V179.199V153L66.0955 147.411L67.1021 143.219L70.4576 132.74L71.4642 130.295L73.4775 125.055L76.8329 119.466L77.8395 118.418L78.5106 117.719L79.8528 117.021L81.5305 116.671L82.8727 116.322L87.2347 114.226L90.2546 112.479L94.9523 108.637L98.6432 104.795L100.657 102.349L103.005 98.8562L105.019 95.7123L107.032 90.8219L107.367 89.0753L108.374 86.6301L110.723 78.9452L111.394 77.1986L113.072 74.0548L114.078 72.3082L116.092 69.1644L117.434 67.4178L118.776 66.0205L119.783 64.9726L120.118 64.274L120.454 63.226V62.8767L120.118 62.1781L119.783 61.8288L119.447 61.4795H118.776L117.769 61.8288L117.098 62.1781L114.078 64.274L111.729 66.3699L110.387 67.7671L109.381 68.8151L109.045 69.863H108.374L107.703 68.8151L107.032 67.4178L106.696 66.3699H106.025L105.354 66.7192L105.019 69.5137L104.683 73.7055L104.012 76.8493L103.005 79.9931L101.328 83.8356L99.6499 87.3288L98.3077 89.4247L96.2944 91.8699L94.2812 94.3151L89.9191 97.4589L84.8859 100.603L82.2016 101.301L80.5239 102L77.8395 102.349H74.8196H71.7997L68.7798 102L65.7599 100.952L63.4111 99.9041L59.7202 97.4589L55.3581 93.6164L52.6737 90.4726L50.996 86.9794L49.6538 83.8356L48.3117 79.6438L47.9761 77.8973V76.1507V73.7055V69.863L48.3117 67.4178L48.9828 63.5753L49.9894 59.3836L52.0027 54.8425L54.687 50.6507L57.0358 47.5068L58.7135 45.0616L59.7202 43.6644L59.3846 42.9658H58.7135L57.0358 44.363L55.6936 45.0616H54.687L53.6804 44.363L53.0093 43.3151L50.996 39.4726L49.9894 37.3767L48.6472 36.3288L47.6406 37.3767L48.6472 40.1712V44.363V47.5068L47.6406 50.6507L44.2851 58.6849L42.2719 64.274L40.2586 71.6096L39.252 76.5V81.0411V84.1849L40.2586 90.1233L41.6008 94.3151L44.2851 100.253L46.2984 104.445L46.9695 107.938V110.384L45.6273 115.274L42.6074 124.705L39.252 133.788L35.2255 142.521L29.8568 153L27.1724 157.541L23.1459 161.034L21.1326 162.082L19.4549 162.781L17.7772 163.13H14.7573L13.0796 162.431L11.4019 161.733H10.3952L9.38859 162.082L8.04642 164.178L3.68435 171.514L1.33554 175.356L1 176.753Z" fill="#16578F"/>
<path d="M1 176.753L1.67109 177.801L3.34881 178.151L4.35544 177.801L5.36207 177.452L7.03979 176.055L8.38196 174.308L10.7308 172.212L11.0663 171.514L11.4019 170.815L11.7374 170.466L12.4085 170.815L13.0796 171.164L16.0995 172.212L17.1061 172.562L19.1194 172.911H23.1459L26.1658 172.212L28.179 171.514L33.2122 169.068L35.2255 167.671L38.2454 164.877L40.2586 162.781L42.2719 160.685L44.9562 156.493L48.3117 150.904L49.9894 147.76L50.6605 147.062L51.3316 147.76L52.0027 154.397L52.6737 158.938L54.687 175.356L55.3581 179.548L56.0292 183.74L57.0358 188.979L57.3714 192.123V194.219L57.0358 195.966L57.7069 198.062L59.0491 199.459L60.7268 200.507L62.4045 201.205L64.4178 202.253L67.7732 202.952L70.7931 203.651H72.8064L73.4775 202.952L73.813 202.253L73.1419 201.205L71.4642 199.459L69.7865 198.062L67.4377 195.616L66.0955 194.219L65.7599 193.521V191.774V179.199V153L66.0955 147.411L67.1021 143.219L70.4576 132.74L71.4642 130.295L73.4775 125.055L76.8329 119.466L77.8395 118.418L78.5106 117.719L79.8528 117.021L81.5305 116.671L82.8727 116.322L87.2347 114.226L90.2546 112.479L94.9523 108.637L98.6432 104.795L100.657 102.349L103.005 98.8562L105.019 95.7123L107.032 90.8219L107.367 89.0753L108.374 86.6301L110.723 78.9452L111.394 77.1986L113.072 74.0548L114.078 72.3082L116.092 69.1644L117.434 67.4178L118.776 66.0205L119.783 64.9726L120.118 64.274L120.454 63.226V62.8767L120.118 62.1781L119.783 61.8288L119.447 61.4795H118.776L117.769 61.8288L117.098 62.1781L114.078 64.274L111.729 66.3699L110.387 67.7671L109.381 68.8151L109.045 69.863H108.374L107.703 68.8151L107.032 67.4178L106.696 66.3699H106.025L105.354 66.7192L105.019 69.5137L104.683 73.7055L104.012 76.8493L103.005 79.9931L101.328 83.8356L99.6499 87.3288L98.3077 89.4247L96.2944 91.8699L94.2812 94.3151L89.9191 97.4589L84.8859 100.603L82.2016 101.301L80.5239 102L77.8395 102.349H74.8196H71.7997L68.7798 102L65.7599 100.952L63.4111 99.9041L59.7202 97.4589L55.3581 93.6164L52.6737 90.4726L50.996 86.9794L49.6538 83.8356L48.3117 79.6438L47.9761 77.8973V76.1507V73.7055V69.863L48.3117 67.4178L48.9828 63.5753L49.9894 59.3836L52.0027 54.8425L54.687 50.6507L57.0358 47.5068L58.7135 45.0616L59.7202 43.6644L59.3846 42.9658H58.7135L57.0358 44.363L55.6936 45.0616H54.687L53.6804 44.363L53.0093 43.3151L50.996 39.4726L49.9894 37.3767L48.6472 36.3288L47.6406 37.3767L48.6472 40.1712V44.363V47.5068L47.6406 50.6507L44.2851 58.6849L42.2719 64.274L40.2586 71.6096L39.252 76.5V81.0411V84.1849L40.2586 90.1233L41.6008 94.3151L44.2851 100.253L46.2984 104.445L46.9695 107.938V110.384L45.6273 115.274L42.6074 124.705L39.252 133.788L35.2255 142.521L29.8568 153L27.1724 157.541L23.1459 161.034L21.1326 162.082L19.4549 162.781L17.7772 163.13H14.7573L13.0796 162.431L11.4019 161.733H10.3952L9.38859 162.082L8.04642 164.178L3.68435 171.514L1.33554 175.356L1 176.753Z" stroke="#16578F"/>
</g>
<g style="mix-blend-mode:darken">
<path d="M254 177.047L253.318 178.097L251.612 178.447L250.588 178.097L249.564 177.747L247.858 176.346L246.494 174.596L244.105 172.496L243.764 171.796L243.423 171.096L243.082 170.746L242.399 171.096L241.717 171.446L238.646 172.496L237.622 172.846L235.575 173.196H231.481L228.41 172.496L226.363 171.796L221.245 169.346L219.198 167.945L216.127 165.145L214.08 163.045L212.033 160.945L209.303 156.744L205.891 151.143L204.185 147.993L203.503 147.293L202.82 147.993L202.138 154.644L201.455 159.194L199.408 175.646L198.726 179.847L198.043 184.047L197.02 189.298L196.679 192.449V194.549L197.02 196.299L196.337 198.399L194.973 199.799L193.267 200.85L191.561 201.55L189.513 202.6L186.101 203.3L183.031 204H180.983L180.301 203.3L179.96 202.6L180.642 201.55L182.348 199.799L184.054 198.399L186.443 195.949L187.807 194.549L188.149 193.849V192.098V179.497V153.244L187.807 147.643L186.784 143.442L183.372 132.941L182.348 130.491L180.301 125.24L176.889 119.639L175.865 118.589L175.183 117.889L173.818 117.189L172.112 116.839L170.747 116.489L166.312 114.389L163.241 112.638L158.464 108.788L154.711 104.937L152.664 102.487L150.275 98.9867L148.228 95.8363L146.181 90.9357L145.84 89.1855L144.816 86.7351L142.428 79.0342L141.746 77.284L140.04 74.1336L139.016 72.3833L136.969 69.2329L135.604 67.4827L134.239 66.0825L133.216 65.0324L132.874 64.3323L132.533 63.2822V62.9321L132.874 62.232L133.216 61.882L133.557 61.532H134.239L135.263 61.882L135.945 62.232L139.016 64.3323L141.404 66.4326L142.769 67.8328L143.793 68.8829L144.134 69.933H144.816L145.499 68.8829L146.181 67.4827L146.522 66.4326H147.205L147.887 66.7826L148.228 69.583L148.57 73.7835L149.252 76.9339L150.275 80.0843L151.981 83.9348L153.687 87.4352L155.052 89.5355L157.099 91.9858L159.147 94.4361L163.582 97.5865L168.7 100.737L171.43 101.437L173.136 102.137L175.865 102.487H178.936H182.007L185.078 102.137L188.149 101.087L190.537 100.037L194.29 97.5865L198.726 93.736L201.455 90.5856L203.161 87.0852L204.526 83.9348L205.891 79.7343L206.232 77.984V76.2338V73.7835V69.933L205.891 67.4827L205.209 63.6322L204.185 59.4317L202.138 54.8811L199.408 50.6806L197.02 47.5302L195.314 45.0799L194.29 43.6797L194.631 42.9796H195.314L197.02 44.3798L198.385 45.0799H199.408L200.432 44.3798L201.114 43.3297L203.161 39.4792L204.185 37.3789L205.55 36.3288L206.573 37.3789L205.55 40.1793V44.3798V47.5302L206.573 50.6806L209.985 58.7316L212.033 64.3323L214.08 71.6832L215.103 76.5839V81.1344V84.2848L214.08 90.2356L212.715 94.4361L209.985 100.387L207.938 104.587L207.256 108.088V110.538L208.621 115.439L211.691 124.89L215.103 133.991L219.198 142.742L224.657 153.244L227.386 157.794L231.481 161.295L233.528 162.345L235.234 163.045L236.94 163.395H240.011L241.717 162.695L243.423 161.995H244.446L245.47 162.345L246.835 164.445L251.27 171.796L253.659 175.646L254 177.047Z" fill="#16578F"/>
<path d="M254 177.047L253.318 178.097L251.612 178.447L250.588 178.097L249.564 177.747L247.858 176.346L246.494 174.596L244.105 172.496L243.764 171.796L243.423 171.096L243.082 170.746L242.399 171.096L241.717 171.446L238.646 172.496L237.622 172.846L235.575 173.196H231.481L228.41 172.496L226.363 171.796L221.245 169.346L219.198 167.945L216.127 165.145L214.08 163.045L212.033 160.945L209.303 156.744L205.891 151.143L204.185 147.993L203.503 147.293L202.82 147.993L202.138 154.644L201.455 159.194L199.408 175.646L198.726 179.847L198.043 184.047L197.02 189.298L196.679 192.449V194.549L197.02 196.299L196.337 198.399L194.973 199.799L193.267 200.85L191.561 201.55L189.513 202.6L186.101 203.3L183.031 204H180.983L180.301 203.3L179.96 202.6L180.642 201.55L182.348 199.799L184.054 198.399L186.443 195.949L187.807 194.549L188.149 193.849V192.098V179.497V153.244L187.807 147.643L186.784 143.442L183.372 132.941L182.348 130.491L180.301 125.24L176.889 119.639L175.865 118.589L175.183 117.889L173.818 117.189L172.112 116.839L170.747 116.489L166.312 114.389L163.241 112.638L158.464 108.788L154.711 104.937L152.664 102.487L150.275 98.9867L148.228 95.8363L146.181 90.9357L145.84 89.1855L144.816 86.7351L142.428 79.0342L141.746 77.284L140.04 74.1336L139.016 72.3833L136.969 69.2329L135.604 67.4827L134.239 66.0825L133.216 65.0324L132.874 64.3323L132.533 63.2822V62.9321L132.874 62.232L133.216 61.882L133.557 61.532H134.239L135.263 61.882L135.945 62.232L139.016 64.3323L141.404 66.4326L142.769 67.8328L143.793 68.8829L144.134 69.933H144.816L145.499 68.8829L146.181 67.4827L146.522 66.4326H147.205L147.887 66.7826L148.228 69.583L148.57 73.7835L149.252 76.9339L150.275 80.0843L151.981 83.9348L153.687 87.4352L155.052 89.5355L157.099 91.9858L159.147 94.4361L163.582 97.5865L168.7 100.737L171.43 101.437L173.136 102.137L175.865 102.487H178.936H182.007L185.078 102.137L188.149 101.087L190.537 100.037L194.29 97.5865L198.726 93.736L201.455 90.5856L203.161 87.0852L204.526 83.9348L205.891 79.7343L206.232 77.984V76.2338V73.7835V69.933L205.891 67.4827L205.209 63.6322L204.185 59.4317L202.138 54.8811L199.408 50.6806L197.02 47.5302L195.314 45.0799L194.29 43.6797L194.631 42.9796H195.314L197.02 44.3798L198.385 45.0799H199.408L200.432 44.3798L201.114 43.3297L203.161 39.4792L204.185 37.3789L205.55 36.3288L206.573 37.3789L205.55 40.1793V44.3798V47.5302L206.573 50.6806L209.985 58.7316L212.033 64.3323L214.08 71.6832L215.103 76.5839V81.1344V84.2848L214.08 90.2356L212.715 94.4361L209.985 100.387L207.938 104.587L207.256 108.088V110.538L208.621 115.439L211.691 124.89L215.103 133.991L219.198 142.742L224.657 153.244L227.386 157.794L231.481 161.295L233.528 162.345L235.234 163.045L236.94 163.395H240.011L241.717 162.695L243.423 161.995H244.446L245.47 162.345L246.835 164.445L251.27 171.796L253.659 175.646L254 177.047Z" stroke="#16578F"/>
</g>
<ellipse cx="72.1353" cy="78.5959" rx="11.4085" ry="15.7192" fill="#16578F"/>
<ellipse rx="11.4324" ry="15.6887" transform="matrix(0.972605 -0.232465 0.215364 0.976534 178.572 78.759)" fill="#16578F"/>
<path d="M49.6538 4.5411L46.6339 0.349315L46.2983 0H45.6273L44.9562 0.349315L43.9495 2.09589L42.6074 6.28767L41.9363 9.43151V13.274L42.2718 17.8151L43.2785 21.3082L44.6206 24.4521L46.6339 27.5959L49.3182 30.7397L52.3381 33.5342L55.0225 35.6301L57.0357 36.6781L59.049 37.3767L63.4111 37.726L73.8129 38.0753H77.1684L80.1883 37.726L83.8792 36.6781L86.2281 35.6301L90.2546 33.5342L94.9522 31.7877L98.3076 30.7397L100.656 30.3904L103.005 30.7397L104.683 31.089L106.696 32.137L108.038 33.5342L109.381 34.9315L110.387 36.6781L111.058 38.774L111.394 40.8699L111.729 45.0616V47.8562L111.058 50.6507L110.052 53.0959L109.045 55.8904V56.589L110.387 54.8425L111.394 53.0959L112.4 51L113.407 48.5548L113.743 45.7603V41.9178L113.407 39.1233L113.072 36.6781L112.4 34.2329L111.058 31.7877L109.045 29.3425L105.69 26.1986L103.005 24.8014L100.321 23.7534L97.9721 23.4041H91.9323H86.8991L79.5172 22.7055L73.4774 21.3082L68.1087 18.863L62.0689 15.7192L57.3713 12.226L53.6803 9.08219L49.6538 4.5411Z" fill="#A0B83B"/>
<path d="M145.787 50.849L145.41 56.5891H145.032H144.852L144.277 55.8715L143.522 54.0778L142.39 51.5665L141.635 50.1314L141.257 47.9789V47.2614V45.1089V42.5976L141.635 39.7275L142.39 37.575L143.145 36.14L143.9 34.7049L144.655 33.6287L146.165 32.5524L147.675 31.4761L149.185 30.7586L150.695 30.3999L152.204 30.0411H152.959H154.469L156.734 30.3999L160.132 31.4761L165.039 33.2699L168.814 35.0637L171.456 36.14H169.946H163.529L159.754 36.8575L157.112 37.575L154.092 39.3688L151.45 41.5213L148.807 44.0326L146.92 47.2614L145.787 50.849Z" fill="#7E8E27"/>
<path d="M208.197 4.5411L211.414 0.349315L211.772 0H212.487L213.202 0.349315L214.274 2.09589L215.704 6.28767L216.419 9.43151V13.274L216.062 17.8151L214.989 21.3082L213.559 24.4521L211.414 27.5959L208.554 30.7397L205.337 33.5342L202.477 35.6301L200.332 36.6781L198.187 37.3767L193.539 37.726L182.457 38.0753H178.882L175.665 37.726L171.732 36.6781L169.23 35.6301L164.94 33.5342L159.935 31.7877L156.36 30.7397L153.857 30.3904L151.355 30.7397L149.567 31.089L147.422 32.137L145.993 33.5342L144.563 34.9315L143.49 36.6781L142.775 38.774L142.418 40.8699L142.06 45.0616V47.8562L142.775 50.6507L143.848 53.0959L144.92 55.8904V56.589L143.49 54.8425L142.418 53.0959L141.345 51L140.273 48.5548L139.915 45.7603V41.9178L140.273 39.1233L140.63 36.6781L141.345 34.2329L142.775 31.7877L144.92 29.3425L148.495 26.1986L151.355 24.8014L154.215 23.7534L156.717 23.4041H163.152H168.515L176.38 22.7055L182.815 21.3082L188.534 18.863L194.969 15.7192L199.974 12.226L203.907 9.08219L208.197 4.5411Z" fill="#A0B83B"/>
<path d="M120.454 76.1507L115.756 84.1849V89.0753L117.434 92.2192L120.454 97.4589L124.816 103.397L125.487 104.096H126.158H126.493L131.191 97.4589L135.553 90.1233V88.3767V85.2329V84.5342L131.191 76.5L127.836 71.2603L126.829 70.5616H125.822H124.816L124.145 70.911L120.454 76.1507Z" fill="#EA7F24"/>
<path d="M104.213 130.225C104.213 131.546 104.015 132.854 103.631 134.075C103.246 135.295 102.683 136.404 101.973 137.338C101.262 138.273 100.419 139.014 99.4906 139.519C98.5624 140.025 97.5675 140.285 96.5629 140.285C95.5582 140.285 94.5634 140.025 93.6352 139.519C92.707 139.014 91.8636 138.273 91.1532 137.338C90.4428 136.404 89.8793 135.295 89.4948 134.075C89.1104 132.854 88.9125 131.546 88.9125 130.225L89.6387 130.225C89.6387 131.42 89.8178 132.604 90.1657 133.709C90.5137 134.814 91.0237 135.818 91.6667 136.663C92.3097 137.509 93.073 138.179 93.9131 138.637C94.7532 139.094 95.6536 139.33 96.5629 139.33C97.4722 139.33 98.3726 139.094 99.2127 138.637C100.053 138.179 100.816 137.509 101.459 136.663C102.102 135.818 102.612 134.814 102.96 133.709C103.308 132.604 103.487 131.42 103.487 130.225H104.213Z" fill="#C4C4C4"/>
<path d="M119.514 130.225C119.514 131.546 119.316 132.854 118.932 134.075C118.547 135.295 117.984 136.404 117.273 137.338C116.563 138.273 115.72 139.014 114.791 139.519C113.863 140.025 112.868 140.285 111.864 140.285C110.859 140.285 109.864 140.025 108.936 139.519C108.008 139.014 107.164 138.273 106.454 137.338C105.744 136.404 105.18 135.295 104.796 134.075C104.411 132.854 104.213 131.546 104.213 130.225L104.939 130.225C104.939 131.42 105.119 132.604 105.467 133.709C105.814 134.814 106.325 135.818 106.967 136.663C107.61 137.509 108.374 138.179 109.214 138.637C110.054 139.094 110.954 139.33 111.864 139.33C112.773 139.33 113.673 139.094 114.513 138.637C115.354 138.179 116.117 137.509 116.76 136.663C117.403 135.818 117.913 134.814 118.261 133.709C118.609 132.604 118.788 131.42 118.788 130.225H119.514Z" fill="#C4C4C4"/>
<path d="M134.815 130.225C134.815 131.546 134.617 132.854 134.232 134.075C133.848 135.295 133.284 136.404 132.574 137.338C131.864 138.273 131.02 139.014 130.092 139.519C129.164 140.025 128.169 140.285 127.164 140.285C126.16 140.285 125.165 140.025 124.237 139.519C123.309 139.014 122.465 138.273 121.755 137.338C121.044 136.404 120.481 135.295 120.096 134.075C119.712 132.854 119.514 131.546 119.514 130.225L120.24 130.225C120.24 131.42 120.419 132.604 120.767 133.709C121.115 134.814 121.625 135.818 122.268 136.663C122.911 137.509 123.675 138.179 124.515 138.637C125.355 139.094 126.255 139.33 127.164 139.33C128.074 139.33 128.974 139.094 129.814 138.637C130.654 138.179 131.418 137.509 132.061 136.663C132.704 135.818 133.214 134.814 133.562 133.709C133.91 132.604 134.089 131.42 134.089 130.225H134.815Z" fill="#C4C4C4"/>
<path d="M150.116 130.225C150.116 131.546 149.918 132.854 149.533 134.075C149.149 135.295 148.585 136.404 147.875 137.338C147.164 138.273 146.321 139.014 145.393 139.519C144.465 140.025 143.47 140.285 142.465 140.285C141.461 140.285 140.466 140.025 139.538 139.519C138.609 139.014 137.766 138.273 137.056 137.338C136.345 136.404 135.782 135.295 135.397 134.075C135.013 132.854 134.815 131.546 134.815 130.225L135.541 130.225C135.541 131.42 135.72 132.604 136.068 133.709C136.416 134.814 136.926 135.818 137.569 136.663C138.212 137.509 138.975 138.179 139.815 138.637C140.656 139.094 141.556 139.33 142.465 139.33C143.375 139.33 144.275 139.094 145.115 138.637C145.955 138.179 146.718 137.509 147.361 136.663C148.004 135.818 148.514 134.814 148.862 133.709C149.21 132.604 149.389 131.42 149.389 130.225H150.116Z" fill="#C4C4C4"/>
<path d="M114.766 145.611C114.766 146.932 114.568 148.24 114.183 149.461C113.799 150.681 113.235 151.79 112.525 152.725C111.814 153.659 110.971 154.4 110.043 154.905C109.115 155.411 108.12 155.671 107.115 155.671C106.11 155.671 105.116 155.411 104.187 154.905C103.259 154.4 102.416 153.659 101.705 152.725C100.995 151.79 100.432 150.681 100.047 149.461C99.6626 148.24 99.4647 146.932 99.4647 145.611L100.191 145.611C100.191 146.807 100.37 147.991 100.718 149.095C101.066 150.2 101.576 151.204 102.219 152.049C102.862 152.895 103.625 153.566 104.465 154.023C105.305 154.481 106.206 154.716 107.115 154.716C108.024 154.716 108.925 154.481 109.765 154.023C110.605 153.566 111.368 152.895 112.011 152.049C112.654 151.204 113.164 150.2 113.512 149.095C113.86 147.991 114.039 146.807 114.039 145.611H114.766Z" fill="#C4C4C4"/>
<path d="M130.066 145.611C130.066 146.932 129.868 148.24 129.484 149.461C129.099 150.681 128.536 151.79 127.826 152.725C127.115 153.659 126.272 154.4 125.344 154.905C124.415 155.411 123.421 155.671 122.416 155.671C121.411 155.671 120.416 155.411 119.488 154.905C118.56 154.4 117.717 153.659 117.006 152.725C116.296 151.79 115.732 150.681 115.348 149.461C114.963 148.24 114.766 146.932 114.766 145.611L115.492 145.611C115.492 146.807 115.671 147.991 116.019 149.095C116.367 150.2 116.877 151.204 117.52 152.049C118.163 152.895 118.926 153.566 119.766 154.023C120.606 154.481 121.507 154.716 122.416 154.716C123.325 154.716 124.226 154.481 125.066 154.023C125.906 153.566 126.669 152.895 127.312 152.049C127.955 151.204 128.465 150.2 128.813 149.095C129.161 147.991 129.34 146.807 129.34 145.611H130.066Z" fill="#C4C4C4"/>
<path d="M145.367 145.611C145.367 146.932 145.169 148.24 144.785 149.461C144.4 150.681 143.837 151.79 143.126 152.725C142.416 153.659 141.573 154.4 140.644 154.905C139.716 155.411 138.721 155.671 137.717 155.671C136.712 155.671 135.717 155.411 134.789 154.905C133.861 154.4 133.017 153.659 132.307 152.725C131.597 151.79 131.033 150.681 130.649 149.461C130.264 148.24 130.066 146.932 130.066 145.611L130.792 145.611C130.792 146.807 130.972 147.991 131.32 149.095C131.668 150.2 132.178 151.204 132.821 152.049C133.463 152.895 134.227 153.566 135.067 154.023C135.907 154.481 136.807 154.716 137.717 154.716C138.626 154.716 139.526 154.481 140.366 154.023C141.207 153.566 141.97 152.895 142.613 152.049C143.256 151.204 143.766 150.2 144.114 149.095C144.462 147.991 144.641 146.807 144.641 145.611H145.367Z" fill="#C4C4C4"/>
<path d="M122.68 160.405C122.68 161.727 122.482 163.035 122.097 164.255C121.713 165.476 121.149 166.585 120.439 167.519C119.729 168.453 118.885 169.194 117.957 169.7C117.029 170.206 116.034 170.466 115.029 170.466C114.025 170.466 113.03 170.206 112.102 169.7C111.173 169.194 110.33 168.453 109.62 167.519C108.909 166.585 108.346 165.476 107.961 164.255C107.577 163.035 107.379 161.727 107.379 160.405L108.105 160.405C108.105 161.601 108.284 162.785 108.632 163.89C108.98 164.995 109.49 165.998 110.133 166.844C110.776 167.689 111.539 168.36 112.38 168.818C113.22 169.275 114.12 169.511 115.029 169.511C115.939 169.511 116.839 169.275 117.679 168.818C118.519 168.36 119.282 167.689 119.925 166.844C120.568 165.998 121.078 164.995 121.426 163.89C121.774 162.785 121.954 161.601 121.954 160.405H122.68Z" fill="#C4C4C4"/>
<path d="M137.981 160.405C137.981 161.727 137.783 163.035 137.398 164.255C137.014 165.476 136.45 166.585 135.74 167.519C135.029 168.453 134.186 169.194 133.258 169.7C132.33 170.206 131.335 170.466 130.33 170.466C129.326 170.466 128.331 170.206 127.403 169.7C126.474 169.194 125.631 168.453 124.921 167.519C124.21 166.585 123.647 165.476 123.262 164.255C122.878 163.035 122.68 161.727 122.68 160.405L123.406 160.405C123.406 161.601 123.585 162.785 123.933 163.89C124.281 164.995 124.791 165.998 125.434 166.844C126.077 167.689 126.84 168.36 127.68 168.818C128.521 169.275 129.421 169.511 130.33 169.511C131.24 169.511 132.14 169.275 132.98 168.818C133.82 168.36 134.583 167.689 135.226 166.844C135.869 165.998 136.379 164.995 136.727 163.89C137.075 162.785 137.254 161.601 137.254 160.405H137.981Z" fill="#C4C4C4"/>
<path d="M153.281 160.405C153.281 161.727 153.083 163.035 152.699 164.255C152.314 165.476 151.751 166.585 151.041 167.519C150.33 168.453 149.487 169.194 148.559 169.7C147.63 170.206 146.636 170.466 145.631 170.466C144.626 170.466 143.631 170.206 142.703 169.7C141.775 169.194 140.932 168.453 140.221 167.519C139.511 166.585 138.947 165.476 138.563 164.255C138.178 163.035 137.98 161.727 137.98 160.405L138.707 160.405C138.707 161.601 138.886 162.785 139.234 163.89C139.582 164.995 140.092 165.998 140.735 166.844C141.378 167.689 142.141 168.36 142.981 168.818C143.821 169.275 144.722 169.511 145.631 169.511C146.54 169.511 147.441 169.275 148.281 168.818C149.121 168.36 149.884 167.689 150.527 166.844C151.17 165.998 151.68 164.995 152.028 163.89C152.376 162.785 152.555 161.601 152.555 160.405H153.281Z" fill="#C4C4C4"/>
<path d="M160.668 145.611C160.668 146.932 160.47 148.24 160.086 149.461C159.701 150.681 159.138 151.79 158.427 152.725C157.717 153.659 156.873 154.4 155.945 154.905C155.017 155.411 154.022 155.671 153.018 155.671C152.013 155.671 151.018 155.411 150.09 154.905C149.162 154.4 148.318 153.659 147.608 152.725C146.898 151.79 146.334 150.681 145.95 149.461C145.565 148.24 145.367 146.932 145.367 145.611L146.093 145.611C146.093 146.807 146.272 147.991 146.62 149.095C146.968 150.2 147.478 151.204 148.121 152.049C148.764 152.895 149.528 153.566 150.368 154.023C151.208 154.481 152.108 154.716 153.018 154.716C153.927 154.716 154.827 154.481 155.667 154.023C156.507 153.566 157.271 152.895 157.914 152.049C158.557 151.204 159.067 150.2 159.415 149.095C159.763 147.991 159.942 146.807 159.942 145.611H160.668Z" fill="#C4C4C4"/>
<path d="M165.416 130.225C165.416 131.546 165.219 132.854 164.834 134.075C164.45 135.295 163.886 136.404 163.176 137.338C162.465 138.273 161.622 139.014 160.694 139.519C159.765 140.025 158.771 140.285 157.766 140.285C156.761 140.285 155.767 140.025 154.838 139.519C153.91 139.014 153.067 138.273 152.356 137.338C151.646 136.404 151.082 135.295 150.698 134.075C150.313 132.854 150.116 131.546 150.116 130.225L150.842 130.225C150.842 131.42 151.021 132.604 151.369 133.709C151.717 134.814 152.227 135.818 152.87 136.663C153.513 137.509 154.276 138.179 155.116 138.637C155.956 139.094 156.857 139.33 157.766 139.33C158.675 139.33 159.576 139.094 160.416 138.637C161.256 138.179 162.019 137.509 162.662 136.663C163.305 135.818 163.815 134.814 164.163 133.709C164.511 132.604 164.69 131.42 164.69 130.225H165.416Z" fill="#C4C4C4"/>
</svg>
